<svg xmlns="http://www.w3.org/2000/svg" width="256" height="256" viewBox="0 0 256 256" preserveAspectRatio="xMidYMid"><path d="M20 0h216c11.046 0 20 8.954 20 20v216c0 11.046-8.954 20-20 20H20c-11.046 0-20-8.954-20-20V20C0 8.954 8.954 0 20 0Z" fill="#3178C6"/><path d="M150.518 200.475v27.62c4.492 2.302 9.805 4.028 15.938 5.179 6.133 1.151 12.597 1.726 19.393 1.726 6.622 0 12.914-.633 18.874-1.899 5.96-1.266 11.187-3.352 15.678-6.257 4.492-2.906 8.048-6.704 10.669-11.394 2.62-4.689 3.93-10.486 3.93-17.391 0-5.006-.749-9.394-2.246-13.163a30.748 30.748 0 0 0-6.479-10.055c-2.821-2.935-6.205-5.567-10.149-7.898-3.945-2.33-8.394-4.531-13.347-6.602-3.628-1.497-6.881-2.949-9.761-4.359-2.879-1.41-5.327-2.848-7.342-4.316-2.016-1.467-3.571-3.021-4.665-4.661-1.094-1.64-1.641-3.495-1.641-5.567 0-1.899.489-3.61 1.468-5.135.978-1.525 2.362-2.834 4.152-3.927 1.79-1.094 3.988-1.942 6.594-2.547 2.605-.604 5.499-.906 8.681-.906 2.319 0 4.766.173 7.342.518 2.576.345 5.169.877 7.78 1.597 2.611.72 5.142 1.625 7.593 2.719 2.451 1.094 4.708 2.359 6.774 3.797v-25.806c-4.204-1.611-8.796-2.805-13.778-3.582-4.981-.777-10.697-1.165-17.147-1.165-6.565 0-12.784.705-18.658 2.116-5.874 1.41-11.043 3.61-15.506 6.602-4.463 2.99-7.99 6.805-10.582 11.437-2.591 4.632-3.887 10.17-3.887 16.615 0 8.228 2.375 15.248 7.127 21.06 4.751 5.811 11.963 10.731 21.638 14.759 3.801 1.554 7.342 3.078 10.625 4.575 3.283 1.496 6.119 3.049 8.509 4.661 2.39 1.611 4.276 3.366 5.658 5.265 1.382 1.899 2.073 4.057 2.073 6.475 0 1.784-.432 3.438-1.296 4.963-.864 1.525-2.174 2.848-3.93 3.97-1.755 1.122-3.945 1.999-6.566 2.632-2.62.633-5.687.95-9.2.95-5.989 0-11.92-1.05-17.794-3.151-5.874-2.1-11.317-5.25-16.327-9.451Zm-46.036-68.733H140V109H41v22.742h35.345V233h28.137V131.742Z" fill="#FFF"/></svg>
